<mxfile host="app.diagrams.net" agent="Mozilla/5.0 (Windows NT 10.0; Win64; x64) AppleWebKit/537.36 (KHTML, like Gecko) Chrome/131.0.0.0 Safari/537.36" version="25.0.1" pages="2">
  <diagram id="yPxyJZ8AM_hMuL3Unpa9" name="simple gitflow">
    <mxGraphModel dx="1221" dy="618" grid="1" gridSize="10" guides="1" tooltips="1" connect="1" arrows="1" fold="1" page="1" pageScale="1" pageWidth="1100" pageHeight="850" math="0" shadow="0">
      <root>
        <mxCell id="0" />
        <mxCell id="1" parent="0" />
        <mxCell id="9hBKPDzoitwpIBdzFDQ7-23" value="" style="edgeStyle=orthogonalEdgeStyle;rounded=0;html=1;jettySize=auto;orthogonalLoop=1;plain-blue;endArrow=none;endFill=0;strokeWidth=4;strokeColor=#000000;" parent="1" source="9hBKPDzoitwpIBdzFDQ7-25" target="9hBKPDzoitwpIBdzFDQ7-26" edge="1">
          <mxGeometry x="304.5" y="180" as="geometry" />
        </mxCell>
        <mxCell id="9hBKPDzoitwpIBdzFDQ7-25" value="" style="verticalLabelPosition=bottom;verticalAlign=top;html=1;strokeWidth=4;shape=mxgraph.flowchart.on-page_reference;plain-blue;gradientColor=none;fillColor=#B5E3Fe;strokeColor=#000000;" parent="1" vertex="1">
          <mxGeometry x="250" y="165" width="30" height="30" as="geometry" />
        </mxCell>
        <mxCell id="9hBKPDzoitwpIBdzFDQ7-41" value="" style="edgeStyle=orthogonalEdgeStyle;curved=1;rounded=0;orthogonalLoop=1;jettySize=auto;html=1;endArrow=none;endFill=0;strokeWidth=4;fontFamily=Courier New;fontSize=16;" parent="1" source="9hBKPDzoitwpIBdzFDQ7-26" target="9hBKPDzoitwpIBdzFDQ7-40" edge="1">
          <mxGeometry relative="1" as="geometry" />
        </mxCell>
        <mxCell id="9hBKPDzoitwpIBdzFDQ7-26" value="" style="verticalLabelPosition=bottom;verticalAlign=top;html=1;strokeWidth=4;shape=mxgraph.flowchart.on-page_reference;plain-blue;gradientColor=none;strokeColor=#000000;" parent="1" vertex="1">
          <mxGeometry x="440" y="165" width="30" height="30" as="geometry" />
        </mxCell>
        <mxCell id="9hBKPDzoitwpIBdzFDQ7-43" value="" style="edgeStyle=orthogonalEdgeStyle;curved=1;rounded=0;orthogonalLoop=1;jettySize=auto;html=1;endArrow=none;endFill=0;strokeWidth=4;fontFamily=Courier New;fontSize=16;" parent="1" source="9hBKPDzoitwpIBdzFDQ7-40" target="9hBKPDzoitwpIBdzFDQ7-42" edge="1">
          <mxGeometry relative="1" as="geometry" />
        </mxCell>
        <mxCell id="9hBKPDzoitwpIBdzFDQ7-40" value="" style="verticalLabelPosition=bottom;verticalAlign=top;html=1;strokeWidth=4;shape=mxgraph.flowchart.on-page_reference;plain-blue;gradientColor=none;strokeColor=#000000;" parent="1" vertex="1">
          <mxGeometry x="640" y="165" width="30" height="30" as="geometry" />
        </mxCell>
        <mxCell id="9hBKPDzoitwpIBdzFDQ7-42" value="" style="verticalLabelPosition=bottom;verticalAlign=top;html=1;strokeWidth=4;shape=mxgraph.flowchart.on-page_reference;plain-blue;gradientColor=none;strokeColor=#000000;" parent="1" vertex="1">
          <mxGeometry x="830" y="165" width="30" height="30" as="geometry" />
        </mxCell>
        <mxCell id="9hBKPDzoitwpIBdzFDQ7-27" value="" style="edgeStyle=orthogonalEdgeStyle;rounded=0;html=1;jettySize=auto;orthogonalLoop=1;strokeWidth=4;endArrow=none;endFill=0;" parent="1" target="9hBKPDzoitwpIBdzFDQ7-25" edge="1">
          <mxGeometry x="204.5" y="180" as="geometry">
            <mxPoint x="160" y="180" as="sourcePoint" />
          </mxGeometry>
        </mxCell>
        <mxCell id="9hBKPDzoitwpIBdzFDQ7-28" value="main" style="text;html=1;strokeColor=none;fillColor=none;align=center;verticalAlign=middle;whiteSpace=wrap;overflow=hidden;fontSize=14;fontStyle=1;fontFamily=Courier New;" parent="1" vertex="1">
          <mxGeometry x="90" y="170" width="50" height="20" as="geometry" />
        </mxCell>
        <mxCell id="9hBKPDzoitwpIBdzFDQ7-37" value="The main branch&lt;br&gt;" style="text;html=1;strokeColor=none;fillColor=none;align=left;verticalAlign=middle;whiteSpace=wrap;overflow=hidden;fontSize=14;fontStyle=0;fontColor=#009900;" parent="1" vertex="1">
          <mxGeometry x="95.25" y="190" width="132.25" height="20" as="geometry" />
        </mxCell>
        <mxCell id="9hBKPDzoitwpIBdzFDQ7-39" value="Commit 1" style="text;html=1;strokeColor=none;fillColor=none;align=center;verticalAlign=middle;whiteSpace=wrap;overflow=hidden;fontSize=14;fontStyle=4" parent="1" vertex="1">
          <mxGeometry x="230" y="130" width="70" height="20" as="geometry" />
        </mxCell>
        <mxCell id="1ohKXw7nQVQ0JmZ1yWzG-1" value="Commit 2" style="text;html=1;strokeColor=none;fillColor=none;align=center;verticalAlign=middle;whiteSpace=wrap;overflow=hidden;fontSize=14;fontStyle=4" vertex="1" parent="1">
          <mxGeometry x="420" y="130" width="70" height="20" as="geometry" />
        </mxCell>
        <mxCell id="1ohKXw7nQVQ0JmZ1yWzG-2" value="Commit 3" style="text;html=1;strokeColor=none;fillColor=none;align=center;verticalAlign=middle;whiteSpace=wrap;overflow=hidden;fontSize=14;fontStyle=4" vertex="1" parent="1">
          <mxGeometry x="620" y="130" width="70" height="20" as="geometry" />
        </mxCell>
        <mxCell id="1ohKXw7nQVQ0JmZ1yWzG-3" value="Commit 4" style="text;html=1;strokeColor=none;fillColor=none;align=center;verticalAlign=middle;whiteSpace=wrap;overflow=hidden;fontSize=14;fontStyle=4" vertex="1" parent="1">
          <mxGeometry x="810" y="130" width="70" height="20" as="geometry" />
        </mxCell>
        <mxCell id="1ohKXw7nQVQ0JmZ1yWzG-4" style="edgeStyle=orthogonalEdgeStyle;rounded=0;orthogonalLoop=1;jettySize=auto;html=1;exitX=0.5;exitY=1;exitDx=0;exitDy=0;" edge="1" parent="1" source="1ohKXw7nQVQ0JmZ1yWzG-2" target="1ohKXw7nQVQ0JmZ1yWzG-2">
          <mxGeometry relative="1" as="geometry" />
        </mxCell>
        <mxCell id="1ohKXw7nQVQ0JmZ1yWzG-6" value="&lt;pre style=&quot;font-size: 12px;&quot;&gt;&lt;b&gt;&lt;span class=&quot;hljs-deletion&quot;&gt;Added: file1.txt&lt;br&gt;&lt;/span&gt;&lt;span class=&quot;hljs-deletion&quot;&gt;Added: file2.txt&lt;/span&gt;&lt;/b&gt;&lt;/pre&gt;" style="text;html=1;align=center;verticalAlign=middle;resizable=0;points=[];autosize=1;strokeColor=none;fillColor=none;fontFamily=Courier New;fontSize=14;fontColor=default;fontStyle=1;" vertex="1" parent="1">
          <mxGeometry x="200" y="195" width="130" height="70" as="geometry" />
        </mxCell>
        <UserObject label="&lt;span style=&quot;font-size: 12px;&quot; class=&quot;hljs-deletion&quot;&gt;Modified: file1.txt&lt;/span&gt;&lt;br style=&quot;font-size: 12px;&quot;&gt;&lt;span style=&quot;font-size: 12px;&quot; class=&quot;hljs-deletion&quot;&gt;Added: file3.txt&lt;/span&gt;" id="1ohKXw7nQVQ0JmZ1yWzG-7">
          <mxCell style="text;whiteSpace=wrap;html=1;fontFamily=Courier New;fontSize=12;fontColor=default;fontStyle=1;autosize=1;resizable=0;" vertex="1" parent="1">
            <mxGeometry x="380" y="210" width="160" height="40" as="geometry" />
          </mxCell>
        </UserObject>
        <mxCell id="p4Wp-3k0IABrARnQok4d-1" value="" style="rounded=1;whiteSpace=wrap;html=1;fillColor=none;" vertex="1" parent="1">
          <mxGeometry x="760" y="110" width="160" height="160" as="geometry" />
        </mxCell>
        <UserObject label="&lt;span class=&quot;hljs-deletion&quot;&gt;Deleted: file2.txt&lt;/span&gt;&lt;br&gt;&lt;span class=&quot;hljs-deletion&quot;&gt;Modified: file3.txt&lt;/span&gt;" id="1ohKXw7nQVQ0JmZ1yWzG-8">
          <mxCell style="text;whiteSpace=wrap;html=1;fontFamily=Courier New;fontSize=12;fontColor=default;fontStyle=1;autosize=1;resizable=0;" vertex="1" parent="1">
            <mxGeometry x="580" y="210" width="160" height="40" as="geometry" />
          </mxCell>
        </UserObject>
        <UserObject label="&lt;span class=&quot;hljs-deletion&quot;&gt;Added: file4.txt&lt;/span&gt;&lt;div&gt;&lt;span class=&quot;hljs-deletion&quot;&gt;Renamed: file1.txt&amp;nbsp;&lt;/span&gt;&lt;/div&gt;&lt;div&gt;&lt;span class=&quot;hljs-deletion&quot;&gt;-&amp;gt; main_file.txt&lt;/span&gt;&lt;/div&gt;" id="1ohKXw7nQVQ0JmZ1yWzG-9">
          <mxCell style="text;whiteSpace=wrap;html=1;fontFamily=Courier New;fontSize=12;fontColor=default;fontStyle=1;autosize=1;resizable=0;" vertex="1" parent="1">
            <mxGeometry x="765" y="205" width="160" height="60" as="geometry" />
          </mxCell>
        </UserObject>
        <mxCell id="p4Wp-3k0IABrARnQok4d-2" value="Latest version" style="text;html=1;strokeColor=none;fillColor=none;align=left;verticalAlign=middle;whiteSpace=wrap;overflow=hidden;fontSize=14;fontStyle=0;fontColor=#009900;fontFamily=Helvetica;" vertex="1" parent="1">
          <mxGeometry x="795" y="80" width="100" height="20" as="geometry" />
        </mxCell>
      </root>
    </mxGraphModel>
  </diagram>
  <diagram id="Fit2Ic7Owm-IAlCzmux5" name="merging">
    <mxGraphModel dx="934" dy="445" grid="1" gridSize="10" guides="1" tooltips="1" connect="1" arrows="1" fold="1" page="1" pageScale="1" pageWidth="850" pageHeight="1100" math="0" shadow="0">
      <root>
        <mxCell id="0" />
        <mxCell id="1" parent="0" />
        <mxCell id="8KYo20pevM2L5X6kjU4y-4" value="" style="edgeStyle=orthogonalEdgeStyle;rounded=0;html=1;jettySize=auto;orthogonalLoop=1;plain-blue;endArrow=none;endFill=0;strokeWidth=4;strokeColor=#000000;" edge="1" parent="1" source="8KYo20pevM2L5X6kjU4y-6" target="8KYo20pevM2L5X6kjU4y-8">
          <mxGeometry x="304.5" y="180" as="geometry" />
        </mxCell>
        <mxCell id="8KYo20pevM2L5X6kjU4y-5" style="edgeStyle=orthogonalEdgeStyle;curved=1;rounded=0;html=1;exitX=1;exitY=0.5;exitPerimeter=0;entryX=0;entryY=0.5;entryPerimeter=0;endArrow=none;endFill=0;jettySize=auto;orthogonalLoop=1;strokeWidth=4;fontSize=15;" edge="1" parent="1" source="8KYo20pevM2L5X6kjU4y-6" target="8KYo20pevM2L5X6kjU4y-18">
          <mxGeometry relative="1" as="geometry" />
        </mxCell>
        <mxCell id="8KYo20pevM2L5X6kjU4y-6" value="" style="verticalLabelPosition=bottom;verticalAlign=top;html=1;strokeWidth=4;shape=mxgraph.flowchart.on-page_reference;plain-blue;gradientColor=none;fillColor=#B5E3Fe;strokeColor=#000000;whiteSpace=wrap;spacing=0;textOpacity=80;" vertex="1" parent="1">
          <mxGeometry x="299.5" y="40" width="30" height="30" as="geometry" />
        </mxCell>
        <mxCell id="8KYo20pevM2L5X6kjU4y-8" value="" style="verticalLabelPosition=bottom;verticalAlign=top;html=1;strokeWidth=4;shape=mxgraph.flowchart.on-page_reference;strokeColor=#b85450;fillColor=#f8cecc;" vertex="1" parent="1">
          <mxGeometry x="589.5" y="40" width="30" height="30" as="geometry" />
        </mxCell>
        <mxCell id="8KYo20pevM2L5X6kjU4y-15" value="" style="edgeStyle=orthogonalEdgeStyle;rounded=0;html=1;jettySize=auto;orthogonalLoop=1;strokeWidth=4;endArrow=none;endFill=0;" edge="1" parent="1" target="8KYo20pevM2L5X6kjU4y-6">
          <mxGeometry x="204.5" y="180" as="geometry">
            <mxPoint x="185" y="55" as="sourcePoint" />
          </mxGeometry>
        </mxCell>
        <mxCell id="8KYo20pevM2L5X6kjU4y-16" value="main" style="text;html=1;strokeColor=none;fillColor=none;align=center;verticalAlign=middle;whiteSpace=wrap;overflow=hidden;fontSize=14;fontStyle=1;fontFamily=Courier New;" vertex="1" parent="1">
          <mxGeometry x="115" y="45" width="50" height="20" as="geometry" />
        </mxCell>
        <mxCell id="8KYo20pevM2L5X6kjU4y-17" style="edgeStyle=orthogonalEdgeStyle;curved=1;rounded=0;html=1;exitX=1;exitY=0.5;exitPerimeter=0;entryX=0;entryY=0.5;entryPerimeter=0;endArrow=none;endFill=0;jettySize=auto;orthogonalLoop=1;strokeWidth=4;fontSize=15;" edge="1" parent="1" source="8KYo20pevM2L5X6kjU4y-18" target="8KYo20pevM2L5X6kjU4y-20">
          <mxGeometry relative="1" as="geometry" />
        </mxCell>
        <mxCell id="8KYo20pevM2L5X6kjU4y-18" value="" style="verticalLabelPosition=bottom;verticalAlign=top;html=1;strokeWidth=4;shape=mxgraph.flowchart.on-page_reference;plain-purple;gradientColor=none;strokeColor=#000000;" vertex="1" parent="1">
          <mxGeometry x="372.5" y="120" width="30" height="30" as="geometry" />
        </mxCell>
        <mxCell id="8KYo20pevM2L5X6kjU4y-19" style="edgeStyle=orthogonalEdgeStyle;curved=1;rounded=0;html=1;exitX=1;exitY=0.5;exitPerimeter=0;entryX=0;entryY=0.5;entryPerimeter=0;endArrow=none;endFill=0;jettySize=auto;orthogonalLoop=1;strokeWidth=4;fontSize=15;" edge="1" parent="1" source="8KYo20pevM2L5X6kjU4y-20" target="8KYo20pevM2L5X6kjU4y-22">
          <mxGeometry relative="1" as="geometry" />
        </mxCell>
        <mxCell id="8KYo20pevM2L5X6kjU4y-20" value="" style="verticalLabelPosition=bottom;verticalAlign=top;html=1;strokeWidth=4;shape=mxgraph.flowchart.on-page_reference;plain-purple;gradientColor=none;strokeColor=#000000;" vertex="1" parent="1">
          <mxGeometry x="444.5" y="120" width="30" height="30" as="geometry" />
        </mxCell>
        <mxCell id="8KYo20pevM2L5X6kjU4y-21" style="edgeStyle=orthogonalEdgeStyle;curved=1;rounded=0;html=1;exitX=1;exitY=0.5;exitPerimeter=0;entryX=0;entryY=0.5;entryPerimeter=0;endArrow=none;endFill=0;jettySize=auto;orthogonalLoop=1;strokeWidth=4;fontSize=15;" edge="1" parent="1" source="8KYo20pevM2L5X6kjU4y-22" target="8KYo20pevM2L5X6kjU4y-8">
          <mxGeometry relative="1" as="geometry" />
        </mxCell>
        <mxCell id="8KYo20pevM2L5X6kjU4y-22" value="" style="verticalLabelPosition=bottom;verticalAlign=top;html=1;strokeWidth=4;shape=mxgraph.flowchart.on-page_reference;plain-purple;gradientColor=none;strokeColor=#000000;" vertex="1" parent="1">
          <mxGeometry x="517.5" y="120" width="30" height="30" as="geometry" />
        </mxCell>
        <mxCell id="8KYo20pevM2L5X6kjU4y-23" value="feature-branch created" style="text;html=1;strokeColor=none;fillColor=none;align=left;verticalAlign=middle;whiteSpace=wrap;overflow=hidden;fontSize=14;fontStyle=1;fontFamily=Courier New;" vertex="1" parent="1">
          <mxGeometry x="225" y="85" width="130" height="65" as="geometry" />
        </mxCell>
        <mxCell id="8KYo20pevM2L5X6kjU4y-39" value="&lt;b&gt;c1&lt;/b&gt;" style="text;html=1;align=center;verticalAlign=middle;whiteSpace=wrap;rounded=0;" vertex="1" parent="1">
          <mxGeometry x="284.5" y="40" width="60" height="30" as="geometry" />
        </mxCell>
        <mxCell id="8KYo20pevM2L5X6kjU4y-40" value="" style="group" vertex="1" connectable="0" parent="1">
          <mxGeometry x="429.5" y="45" width="60" height="30" as="geometry" />
        </mxCell>
        <mxCell id="8KYo20pevM2L5X6kjU4y-35" value="" style="verticalLabelPosition=bottom;verticalAlign=top;html=1;strokeWidth=4;shape=mxgraph.flowchart.on-page_reference;plain-blue;gradientColor=none;strokeColor=#000000;" vertex="1" parent="8KYo20pevM2L5X6kjU4y-40">
          <mxGeometry x="15.5" width="30" height="30" as="geometry" />
        </mxCell>
        <mxCell id="8KYo20pevM2L5X6kjU4y-36" value="&lt;b&gt;c2&lt;/b&gt;" style="text;html=1;align=center;verticalAlign=middle;whiteSpace=wrap;rounded=0;" vertex="1" parent="8KYo20pevM2L5X6kjU4y-40">
          <mxGeometry width="60" height="30" as="geometry" />
        </mxCell>
        <mxCell id="8KYo20pevM2L5X6kjU4y-41" value="&lt;b&gt;cm&lt;/b&gt;" style="text;html=1;align=center;verticalAlign=middle;whiteSpace=wrap;rounded=0;" vertex="1" parent="1">
          <mxGeometry x="574.5" y="40" width="60" height="30" as="geometry" />
        </mxCell>
        <mxCell id="8KYo20pevM2L5X6kjU4y-42" value="" style="edgeStyle=orthogonalEdgeStyle;rounded=0;html=1;jettySize=auto;orthogonalLoop=1;strokeWidth=4;endArrow=none;endFill=0;" edge="1" parent="1">
          <mxGeometry x="204.5" y="180" as="geometry">
            <mxPoint x="619.5" y="54.41" as="sourcePoint" />
            <mxPoint x="734.5" y="54.41" as="targetPoint" />
          </mxGeometry>
        </mxCell>
        <mxCell id="8KYo20pevM2L5X6kjU4y-43" value="merge" style="text;html=1;strokeColor=none;fillColor=none;align=left;verticalAlign=middle;whiteSpace=wrap;overflow=hidden;fontSize=14;fontStyle=1;fontFamily=Courier New;" vertex="1" parent="1">
          <mxGeometry x="574.5" y="75" width="130" height="65" as="geometry" />
        </mxCell>
        <mxCell id="8KYo20pevM2L5X6kjU4y-46" value="&lt;b&gt;A&lt;/b&gt;" style="text;html=1;align=center;verticalAlign=middle;whiteSpace=wrap;rounded=0;" vertex="1" parent="1">
          <mxGeometry x="357.5" y="120" width="60" height="30" as="geometry" />
        </mxCell>
        <mxCell id="8KYo20pevM2L5X6kjU4y-48" value="&lt;b&gt;B&lt;/b&gt;" style="text;html=1;align=center;verticalAlign=middle;whiteSpace=wrap;rounded=0;" vertex="1" parent="1">
          <mxGeometry x="429.5" y="120" width="60" height="30" as="geometry" />
        </mxCell>
        <mxCell id="8KYo20pevM2L5X6kjU4y-49" value="&lt;b&gt;C&lt;/b&gt;" style="text;html=1;align=center;verticalAlign=middle;whiteSpace=wrap;rounded=0;" vertex="1" parent="1">
          <mxGeometry x="502.5" y="120" width="60" height="30" as="geometry" />
        </mxCell>
        <mxCell id="8KYo20pevM2L5X6kjU4y-50" value="" style="edgeStyle=orthogonalEdgeStyle;rounded=0;html=1;jettySize=auto;orthogonalLoop=1;plain-blue;endArrow=none;endFill=0;strokeWidth=4;strokeColor=#000000;" edge="1" parent="1" source="8KYo20pevM2L5X6kjU4y-59" target="8KYo20pevM2L5X6kjU4y-53">
          <mxGeometry x="304.5" y="180" as="geometry" />
        </mxCell>
        <mxCell id="8KYo20pevM2L5X6kjU4y-52" value="" style="verticalLabelPosition=bottom;verticalAlign=top;html=1;strokeWidth=4;shape=mxgraph.flowchart.on-page_reference;plain-blue;gradientColor=none;fillColor=#B5E3Fe;strokeColor=#000000;whiteSpace=wrap;spacing=0;textOpacity=80;" vertex="1" parent="1">
          <mxGeometry x="299.5" y="180" width="30" height="30" as="geometry" />
        </mxCell>
        <mxCell id="8KYo20pevM2L5X6kjU4y-61" value="&lt;b&gt;c1&lt;/b&gt;" style="text;html=1;align=center;verticalAlign=middle;whiteSpace=wrap;rounded=0;" vertex="1" parent="1">
          <mxGeometry x="284.5" y="180" width="60" height="30" as="geometry" />
        </mxCell>
        <mxCell id="8KYo20pevM2L5X6kjU4y-66" value="" style="edgeStyle=orthogonalEdgeStyle;rounded=0;html=1;jettySize=auto;orthogonalLoop=1;strokeWidth=4;endArrow=none;endFill=0;" edge="1" parent="1" source="8KYo20pevM2L5X6kjU4y-53">
          <mxGeometry x="204.5" y="180" as="geometry">
            <mxPoint x="619.5" y="219.40999999999997" as="sourcePoint" />
            <mxPoint x="740" y="195" as="targetPoint" />
          </mxGeometry>
        </mxCell>
        <mxCell id="8KYo20pevM2L5X6kjU4y-68" value="&lt;b&gt;A&lt;/b&gt;" style="text;html=1;align=center;verticalAlign=middle;whiteSpace=wrap;rounded=0;" vertex="1" parent="1">
          <mxGeometry x="357.5" y="180" width="60" height="30" as="geometry" />
        </mxCell>
        <mxCell id="8KYo20pevM2L5X6kjU4y-71" value="" style="edgeStyle=orthogonalEdgeStyle;rounded=0;html=1;jettySize=auto;orthogonalLoop=1;strokeWidth=4;endArrow=none;endFill=0;" edge="1" parent="1">
          <mxGeometry x="204.5" y="180" as="geometry">
            <mxPoint x="184.5" y="194.40999999999997" as="sourcePoint" />
            <mxPoint x="299.5" y="194.40999999999997" as="targetPoint" />
          </mxGeometry>
        </mxCell>
        <mxCell id="8KYo20pevM2L5X6kjU4y-74" value="" style="edgeStyle=orthogonalEdgeStyle;rounded=0;html=1;jettySize=auto;orthogonalLoop=1;plain-blue;endArrow=none;endFill=0;strokeWidth=4;strokeColor=#000000;" edge="1" parent="1" source="8KYo20pevM2L5X6kjU4y-52" target="8KYo20pevM2L5X6kjU4y-55">
          <mxGeometry x="304.5" y="180" as="geometry">
            <mxPoint x="330" y="195" as="sourcePoint" />
            <mxPoint x="590" y="195" as="targetPoint" />
          </mxGeometry>
        </mxCell>
        <mxCell id="8KYo20pevM2L5X6kjU4y-55" value="" style="verticalLabelPosition=bottom;verticalAlign=top;html=1;strokeWidth=4;shape=mxgraph.flowchart.on-page_reference;plain-purple;gradientColor=none;strokeColor=#000000;" vertex="1" parent="1">
          <mxGeometry x="370" y="180" width="30" height="30" as="geometry" />
        </mxCell>
        <mxCell id="8KYo20pevM2L5X6kjU4y-75" value="&lt;b&gt;A&lt;/b&gt;" style="text;html=1;align=center;verticalAlign=middle;whiteSpace=wrap;rounded=0;" vertex="1" parent="1">
          <mxGeometry x="355" y="180" width="60" height="30" as="geometry" />
        </mxCell>
        <mxCell id="8KYo20pevM2L5X6kjU4y-76" value="" style="edgeStyle=orthogonalEdgeStyle;rounded=0;html=1;jettySize=auto;orthogonalLoop=1;strokeWidth=4;endArrow=none;endFill=0;" edge="1" parent="1" target="8KYo20pevM2L5X6kjU4y-53">
          <mxGeometry x="204.5" y="180" as="geometry">
            <mxPoint x="619.5" y="194.40999999999997" as="sourcePoint" />
            <mxPoint x="734.5" y="194.40999999999997" as="targetPoint" />
          </mxGeometry>
        </mxCell>
        <mxCell id="8KYo20pevM2L5X6kjU4y-53" value="" style="verticalLabelPosition=bottom;verticalAlign=top;html=1;strokeWidth=4;shape=mxgraph.flowchart.on-page_reference;strokeColor=#b85450;fillColor=#f8cecc;" vertex="1" parent="1">
          <mxGeometry x="665" y="180" width="30" height="30" as="geometry" />
        </mxCell>
        <mxCell id="8KYo20pevM2L5X6kjU4y-65" value="&lt;b&gt;cm&lt;/b&gt;" style="text;html=1;align=center;verticalAlign=middle;whiteSpace=wrap;rounded=0;" vertex="1" parent="1">
          <mxGeometry x="650" y="180" width="60" height="30" as="geometry" />
        </mxCell>
        <mxCell id="8KYo20pevM2L5X6kjU4y-77" value="" style="edgeStyle=orthogonalEdgeStyle;rounded=0;html=1;jettySize=auto;orthogonalLoop=1;plain-blue;endArrow=none;endFill=0;strokeWidth=4;strokeColor=#000000;" edge="1" parent="1" source="8KYo20pevM2L5X6kjU4y-55" target="8KYo20pevM2L5X6kjU4y-57">
          <mxGeometry x="304.5" y="180" as="geometry">
            <mxPoint x="400" y="195" as="sourcePoint" />
            <mxPoint x="665" y="195" as="targetPoint" />
          </mxGeometry>
        </mxCell>
        <mxCell id="8KYo20pevM2L5X6kjU4y-57" value="" style="verticalLabelPosition=bottom;verticalAlign=top;html=1;strokeWidth=4;shape=mxgraph.flowchart.on-page_reference;plain-purple;gradientColor=none;strokeColor=#000000;" vertex="1" parent="1">
          <mxGeometry x="515" y="180" width="30" height="30" as="geometry" />
        </mxCell>
        <mxCell id="8KYo20pevM2L5X6kjU4y-69" value="&lt;b&gt;B&lt;/b&gt;" style="text;html=1;align=center;verticalAlign=middle;whiteSpace=wrap;rounded=0;" vertex="1" parent="1">
          <mxGeometry x="500" y="180" width="60" height="30" as="geometry" />
        </mxCell>
        <mxCell id="8KYo20pevM2L5X6kjU4y-78" value="" style="edgeStyle=orthogonalEdgeStyle;rounded=0;html=1;jettySize=auto;orthogonalLoop=1;plain-blue;endArrow=none;endFill=0;strokeWidth=4;strokeColor=#000000;" edge="1" parent="1" source="8KYo20pevM2L5X6kjU4y-57" target="8KYo20pevM2L5X6kjU4y-59">
          <mxGeometry x="304.5" y="180" as="geometry">
            <mxPoint x="545" y="195" as="sourcePoint" />
            <mxPoint x="665" y="195" as="targetPoint" />
          </mxGeometry>
        </mxCell>
        <mxCell id="8KYo20pevM2L5X6kjU4y-59" value="" style="verticalLabelPosition=bottom;verticalAlign=top;html=1;strokeWidth=4;shape=mxgraph.flowchart.on-page_reference;plain-purple;gradientColor=none;strokeColor=#000000;" vertex="1" parent="1">
          <mxGeometry x="589.5" y="180" width="30" height="30" as="geometry" />
        </mxCell>
        <mxCell id="8KYo20pevM2L5X6kjU4y-70" value="&lt;b&gt;C&lt;/b&gt;" style="text;html=1;align=center;verticalAlign=middle;whiteSpace=wrap;rounded=0;" vertex="1" parent="1">
          <mxGeometry x="574.5" y="180" width="60" height="30" as="geometry" />
        </mxCell>
        <mxCell id="8KYo20pevM2L5X6kjU4y-62" value="" style="group" vertex="1" connectable="0" parent="1">
          <mxGeometry x="429.5" y="180" width="60" height="30" as="geometry" />
        </mxCell>
        <mxCell id="8KYo20pevM2L5X6kjU4y-63" value="" style="verticalLabelPosition=bottom;verticalAlign=top;html=1;strokeWidth=4;shape=mxgraph.flowchart.on-page_reference;plain-blue;gradientColor=none;strokeColor=#000000;" vertex="1" parent="8KYo20pevM2L5X6kjU4y-62">
          <mxGeometry x="15.5" width="30" height="30" as="geometry" />
        </mxCell>
        <mxCell id="8KYo20pevM2L5X6kjU4y-64" value="&lt;b&gt;c2&lt;/b&gt;" style="text;html=1;align=center;verticalAlign=middle;whiteSpace=wrap;rounded=0;" vertex="1" parent="8KYo20pevM2L5X6kjU4y-62">
          <mxGeometry x="0.5" width="60" height="30" as="geometry" />
        </mxCell>
        <mxCell id="8KYo20pevM2L5X6kjU4y-79" value="main" style="text;html=1;strokeColor=none;fillColor=none;align=center;verticalAlign=middle;whiteSpace=wrap;overflow=hidden;fontSize=14;fontStyle=1;fontFamily=Courier New;" vertex="1" parent="1">
          <mxGeometry x="115" y="185" width="50" height="20" as="geometry" />
        </mxCell>
        <mxCell id="8KYo20pevM2L5X6kjU4y-80" value="&lt;font&gt;&lt;u&gt;Merge&lt;/u&gt;&lt;/font&gt;" style="text;html=1;strokeColor=none;fillColor=none;align=center;verticalAlign=middle;whiteSpace=wrap;overflow=hidden;fontSize=14;fontStyle=1;fontFamily=Courier New;" vertex="1" parent="1">
          <mxGeometry x="115" y="10" width="50" height="20" as="geometry" />
        </mxCell>
        <mxCell id="8KYo20pevM2L5X6kjU4y-81" value="" style="edgeStyle=orthogonalEdgeStyle;rounded=0;html=1;jettySize=auto;orthogonalLoop=1;plain-blue;endArrow=none;endFill=0;strokeWidth=4;strokeColor=#000000;" edge="1" parent="1" source="8KYo20pevM2L5X6kjU4y-83" target="8KYo20pevM2L5X6kjU4y-84">
          <mxGeometry x="304.5" y="180" as="geometry" />
        </mxCell>
        <mxCell id="8KYo20pevM2L5X6kjU4y-82" style="edgeStyle=orthogonalEdgeStyle;curved=1;rounded=0;html=1;exitX=1;exitY=0.5;exitPerimeter=0;entryX=0;entryY=0.5;entryPerimeter=0;endArrow=none;endFill=0;jettySize=auto;orthogonalLoop=1;strokeWidth=4;fontSize=15;" edge="1" parent="1" source="8KYo20pevM2L5X6kjU4y-83" target="8KYo20pevM2L5X6kjU4y-88">
          <mxGeometry relative="1" as="geometry" />
        </mxCell>
        <mxCell id="8KYo20pevM2L5X6kjU4y-83" value="" style="verticalLabelPosition=bottom;verticalAlign=top;html=1;strokeWidth=4;shape=mxgraph.flowchart.on-page_reference;plain-blue;gradientColor=none;fillColor=#B5E3Fe;strokeColor=#000000;whiteSpace=wrap;spacing=0;textOpacity=80;" vertex="1" parent="1">
          <mxGeometry x="299.5" y="350" width="30" height="30" as="geometry" />
        </mxCell>
        <mxCell id="8KYo20pevM2L5X6kjU4y-84" value="" style="verticalLabelPosition=bottom;verticalAlign=top;html=1;strokeWidth=4;shape=mxgraph.flowchart.on-page_reference;strokeColor=#b85450;fillColor=#f8cecc;" vertex="1" parent="1">
          <mxGeometry x="589.5" y="350" width="30" height="30" as="geometry" />
        </mxCell>
        <mxCell id="8KYo20pevM2L5X6kjU4y-85" value="" style="edgeStyle=orthogonalEdgeStyle;rounded=0;html=1;jettySize=auto;orthogonalLoop=1;strokeWidth=4;endArrow=none;endFill=0;" edge="1" parent="1" target="8KYo20pevM2L5X6kjU4y-83">
          <mxGeometry x="204.5" y="180" as="geometry">
            <mxPoint x="185" y="365" as="sourcePoint" />
          </mxGeometry>
        </mxCell>
        <mxCell id="8KYo20pevM2L5X6kjU4y-86" value="main" style="text;html=1;strokeColor=none;fillColor=none;align=center;verticalAlign=middle;whiteSpace=wrap;overflow=hidden;fontSize=14;fontStyle=1;fontFamily=Courier New;" vertex="1" parent="1">
          <mxGeometry x="115" y="355" width="50" height="20" as="geometry" />
        </mxCell>
        <mxCell id="8KYo20pevM2L5X6kjU4y-87" style="edgeStyle=orthogonalEdgeStyle;curved=1;rounded=0;html=1;exitX=1;exitY=0.5;exitPerimeter=0;entryX=0;entryY=0.5;entryPerimeter=0;endArrow=none;endFill=0;jettySize=auto;orthogonalLoop=1;strokeWidth=4;fontSize=15;" edge="1" parent="1" source="8KYo20pevM2L5X6kjU4y-88" target="8KYo20pevM2L5X6kjU4y-90">
          <mxGeometry relative="1" as="geometry" />
        </mxCell>
        <mxCell id="8KYo20pevM2L5X6kjU4y-88" value="" style="verticalLabelPosition=bottom;verticalAlign=top;html=1;strokeWidth=4;shape=mxgraph.flowchart.on-page_reference;plain-purple;gradientColor=none;strokeColor=#000000;" vertex="1" parent="1">
          <mxGeometry x="372.5" y="430" width="30" height="30" as="geometry" />
        </mxCell>
        <mxCell id="8KYo20pevM2L5X6kjU4y-89" style="edgeStyle=orthogonalEdgeStyle;curved=1;rounded=0;html=1;exitX=1;exitY=0.5;exitPerimeter=0;entryX=0;entryY=0.5;entryPerimeter=0;endArrow=none;endFill=0;jettySize=auto;orthogonalLoop=1;strokeWidth=4;fontSize=15;" edge="1" parent="1" source="8KYo20pevM2L5X6kjU4y-90" target="8KYo20pevM2L5X6kjU4y-92">
          <mxGeometry relative="1" as="geometry" />
        </mxCell>
        <mxCell id="8KYo20pevM2L5X6kjU4y-90" value="" style="verticalLabelPosition=bottom;verticalAlign=top;html=1;strokeWidth=4;shape=mxgraph.flowchart.on-page_reference;plain-purple;gradientColor=none;strokeColor=#000000;" vertex="1" parent="1">
          <mxGeometry x="444.5" y="430" width="30" height="30" as="geometry" />
        </mxCell>
        <mxCell id="8KYo20pevM2L5X6kjU4y-91" style="edgeStyle=orthogonalEdgeStyle;curved=1;rounded=0;html=1;exitX=1;exitY=0.5;exitPerimeter=0;entryX=0;entryY=0.5;entryPerimeter=0;endArrow=none;endFill=0;jettySize=auto;orthogonalLoop=1;strokeWidth=4;fontSize=15;" edge="1" parent="1" source="8KYo20pevM2L5X6kjU4y-92" target="8KYo20pevM2L5X6kjU4y-84">
          <mxGeometry relative="1" as="geometry" />
        </mxCell>
        <mxCell id="8KYo20pevM2L5X6kjU4y-92" value="" style="verticalLabelPosition=bottom;verticalAlign=top;html=1;strokeWidth=4;shape=mxgraph.flowchart.on-page_reference;plain-purple;gradientColor=none;strokeColor=#000000;" vertex="1" parent="1">
          <mxGeometry x="517.5" y="430" width="30" height="30" as="geometry" />
        </mxCell>
        <mxCell id="8KYo20pevM2L5X6kjU4y-93" value="feature-branch created" style="text;html=1;strokeColor=none;fillColor=none;align=left;verticalAlign=middle;whiteSpace=wrap;overflow=hidden;fontSize=14;fontStyle=1;fontFamily=Courier New;" vertex="1" parent="1">
          <mxGeometry x="225" y="395" width="130" height="65" as="geometry" />
        </mxCell>
        <mxCell id="8KYo20pevM2L5X6kjU4y-94" value="&lt;b&gt;c1&lt;/b&gt;" style="text;html=1;align=center;verticalAlign=middle;whiteSpace=wrap;rounded=0;" vertex="1" parent="1">
          <mxGeometry x="284.5" y="350" width="60" height="30" as="geometry" />
        </mxCell>
        <mxCell id="8KYo20pevM2L5X6kjU4y-95" value="" style="group" vertex="1" connectable="0" parent="1">
          <mxGeometry x="429.5" y="355" width="60" height="30" as="geometry" />
        </mxCell>
        <mxCell id="8KYo20pevM2L5X6kjU4y-96" value="" style="verticalLabelPosition=bottom;verticalAlign=top;html=1;strokeWidth=4;shape=mxgraph.flowchart.on-page_reference;plain-blue;gradientColor=none;strokeColor=#000000;" vertex="1" parent="8KYo20pevM2L5X6kjU4y-95">
          <mxGeometry x="15.5" width="30" height="30" as="geometry" />
        </mxCell>
        <mxCell id="8KYo20pevM2L5X6kjU4y-97" value="&lt;b&gt;c2&lt;/b&gt;" style="text;html=1;align=center;verticalAlign=middle;whiteSpace=wrap;rounded=0;" vertex="1" parent="8KYo20pevM2L5X6kjU4y-95">
          <mxGeometry width="60" height="30" as="geometry" />
        </mxCell>
        <mxCell id="8KYo20pevM2L5X6kjU4y-98" value="&lt;b&gt;cm&lt;/b&gt;" style="text;html=1;align=center;verticalAlign=middle;whiteSpace=wrap;rounded=0;" vertex="1" parent="1">
          <mxGeometry x="574.5" y="350" width="60" height="30" as="geometry" />
        </mxCell>
        <mxCell id="8KYo20pevM2L5X6kjU4y-99" value="" style="edgeStyle=orthogonalEdgeStyle;rounded=0;html=1;jettySize=auto;orthogonalLoop=1;strokeWidth=4;endArrow=none;endFill=0;" edge="1" parent="1">
          <mxGeometry x="204.5" y="180" as="geometry">
            <mxPoint x="619.5" y="364.40999999999997" as="sourcePoint" />
            <mxPoint x="734.5" y="364.40999999999997" as="targetPoint" />
          </mxGeometry>
        </mxCell>
        <mxCell id="8KYo20pevM2L5X6kjU4y-100" value="merge" style="text;html=1;strokeColor=none;fillColor=none;align=left;verticalAlign=middle;whiteSpace=wrap;overflow=hidden;fontSize=14;fontStyle=1;fontFamily=Courier New;" vertex="1" parent="1">
          <mxGeometry x="574.5" y="385" width="130" height="65" as="geometry" />
        </mxCell>
        <mxCell id="8KYo20pevM2L5X6kjU4y-101" value="&lt;b&gt;A&lt;/b&gt;" style="text;html=1;align=center;verticalAlign=middle;whiteSpace=wrap;rounded=0;" vertex="1" parent="1">
          <mxGeometry x="357.5" y="430" width="60" height="30" as="geometry" />
        </mxCell>
        <mxCell id="8KYo20pevM2L5X6kjU4y-102" value="&lt;b&gt;B&lt;/b&gt;" style="text;html=1;align=center;verticalAlign=middle;whiteSpace=wrap;rounded=0;" vertex="1" parent="1">
          <mxGeometry x="429.5" y="430" width="60" height="30" as="geometry" />
        </mxCell>
        <mxCell id="8KYo20pevM2L5X6kjU4y-103" value="&lt;b&gt;C&lt;/b&gt;" style="text;html=1;align=center;verticalAlign=middle;whiteSpace=wrap;rounded=0;" vertex="1" parent="1">
          <mxGeometry x="502.5" y="430" width="60" height="30" as="geometry" />
        </mxCell>
        <mxCell id="8KYo20pevM2L5X6kjU4y-105" value="" style="verticalLabelPosition=bottom;verticalAlign=top;html=1;strokeWidth=4;shape=mxgraph.flowchart.on-page_reference;plain-blue;gradientColor=none;fillColor=#B5E3Fe;strokeColor=#000000;whiteSpace=wrap;spacing=0;textOpacity=80;" vertex="1" parent="1">
          <mxGeometry x="299.5" y="490" width="30" height="30" as="geometry" />
        </mxCell>
        <mxCell id="8KYo20pevM2L5X6kjU4y-106" value="&lt;b&gt;c1&lt;/b&gt;" style="text;html=1;align=center;verticalAlign=middle;whiteSpace=wrap;rounded=0;" vertex="1" parent="1">
          <mxGeometry x="284.5" y="490" width="60" height="30" as="geometry" />
        </mxCell>
        <mxCell id="8KYo20pevM2L5X6kjU4y-109" value="" style="edgeStyle=orthogonalEdgeStyle;rounded=0;html=1;jettySize=auto;orthogonalLoop=1;strokeWidth=4;endArrow=none;endFill=0;" edge="1" parent="1">
          <mxGeometry x="204.5" y="180" as="geometry">
            <mxPoint x="184.5" y="504.40999999999997" as="sourcePoint" />
            <mxPoint x="299.5" y="504.40999999999997" as="targetPoint" />
          </mxGeometry>
        </mxCell>
        <mxCell id="8KYo20pevM2L5X6kjU4y-110" value="" style="edgeStyle=orthogonalEdgeStyle;rounded=0;html=1;jettySize=auto;orthogonalLoop=1;plain-blue;endArrow=none;endFill=0;strokeWidth=4;strokeColor=#000000;" edge="1" parent="1" source="8KYo20pevM2L5X6kjU4y-105">
          <mxGeometry x="304.5" y="180" as="geometry">
            <mxPoint x="330" y="505" as="sourcePoint" />
            <mxPoint x="370" y="505" as="targetPoint" />
          </mxGeometry>
        </mxCell>
        <mxCell id="8KYo20pevM2L5X6kjU4y-114" value="" style="verticalLabelPosition=bottom;verticalAlign=top;html=1;strokeWidth=4;shape=mxgraph.flowchart.on-page_reference;strokeColor=#b85450;fillColor=#f8cecc;" vertex="1" parent="1">
          <mxGeometry x="589.5" y="490" width="30" height="30" as="geometry" />
        </mxCell>
        <mxCell id="8KYo20pevM2L5X6kjU4y-115" value="&lt;b&gt;cm&lt;/b&gt;" style="text;html=1;align=center;verticalAlign=middle;whiteSpace=wrap;rounded=0;" vertex="1" parent="1">
          <mxGeometry x="574.5" y="490" width="60" height="30" as="geometry" />
        </mxCell>
        <mxCell id="8KYo20pevM2L5X6kjU4y-116" value="" style="edgeStyle=orthogonalEdgeStyle;rounded=0;html=1;jettySize=auto;orthogonalLoop=1;plain-blue;endArrow=none;endFill=0;strokeWidth=4;strokeColor=#000000;" edge="1" parent="1" source="8KYo20pevM2L5X6kjU4y-106">
          <mxGeometry x="304.5" y="180" as="geometry">
            <mxPoint x="400" y="505" as="sourcePoint" />
            <mxPoint x="515" y="505" as="targetPoint" />
          </mxGeometry>
        </mxCell>
        <mxCell id="8KYo20pevM2L5X6kjU4y-119" value="" style="edgeStyle=orthogonalEdgeStyle;rounded=0;html=1;jettySize=auto;orthogonalLoop=1;plain-blue;endArrow=none;endFill=0;strokeWidth=4;strokeColor=#000000;" edge="1" parent="1" source="8KYo20pevM2L5X6kjU4y-124">
          <mxGeometry x="304.5" y="180" as="geometry">
            <mxPoint x="545" y="505" as="sourcePoint" />
            <mxPoint x="589.4999999999998" y="505" as="targetPoint" />
          </mxGeometry>
        </mxCell>
        <mxCell id="8KYo20pevM2L5X6kjU4y-122" value="" style="group" vertex="1" connectable="0" parent="1">
          <mxGeometry x="429.5" y="490" width="60" height="30" as="geometry" />
        </mxCell>
        <mxCell id="8KYo20pevM2L5X6kjU4y-123" value="" style="verticalLabelPosition=bottom;verticalAlign=top;html=1;strokeWidth=4;shape=mxgraph.flowchart.on-page_reference;plain-blue;gradientColor=none;strokeColor=#000000;" vertex="1" parent="8KYo20pevM2L5X6kjU4y-122">
          <mxGeometry x="15.5" width="30" height="30" as="geometry" />
        </mxCell>
        <mxCell id="8KYo20pevM2L5X6kjU4y-124" value="&lt;b&gt;c2&lt;/b&gt;" style="text;html=1;align=center;verticalAlign=middle;whiteSpace=wrap;rounded=0;" vertex="1" parent="8KYo20pevM2L5X6kjU4y-122">
          <mxGeometry x="0.5" width="60" height="30" as="geometry" />
        </mxCell>
        <mxCell id="8KYo20pevM2L5X6kjU4y-125" value="main" style="text;html=1;strokeColor=none;fillColor=none;align=center;verticalAlign=middle;whiteSpace=wrap;overflow=hidden;fontSize=14;fontStyle=1;fontFamily=Courier New;" vertex="1" parent="1">
          <mxGeometry x="115" y="495" width="50" height="20" as="geometry" />
        </mxCell>
        <mxCell id="8KYo20pevM2L5X6kjU4y-126" value="&lt;font&gt;&lt;u&gt;Squash and Merge&lt;/u&gt;&lt;/font&gt;" style="text;html=1;strokeColor=none;fillColor=none;align=center;verticalAlign=middle;whiteSpace=wrap;overflow=hidden;fontSize=14;fontStyle=1;fontFamily=Courier New;" vertex="1" parent="1">
          <mxGeometry x="115" y="320" width="145" height="20" as="geometry" />
        </mxCell>
        <mxCell id="8KYo20pevM2L5X6kjU4y-127" value="" style="edgeStyle=orthogonalEdgeStyle;rounded=0;html=1;jettySize=auto;orthogonalLoop=1;strokeWidth=4;endArrow=none;endFill=0;" edge="1" parent="1">
          <mxGeometry x="204.5" y="180" as="geometry">
            <mxPoint x="619.5" y="504.28999999999996" as="sourcePoint" />
            <mxPoint x="734.5" y="504.28999999999996" as="targetPoint" />
          </mxGeometry>
        </mxCell>
        <mxCell id="8KYo20pevM2L5X6kjU4y-128" value="" style="edgeStyle=orthogonalEdgeStyle;rounded=0;html=1;jettySize=auto;orthogonalLoop=1;plain-blue;endArrow=none;endFill=0;strokeWidth=4;strokeColor=#000000;" edge="1" parent="1" source="8KYo20pevM2L5X6kjU4y-130" target="8KYo20pevM2L5X6kjU4y-131">
          <mxGeometry x="304.5" y="180" as="geometry" />
        </mxCell>
        <mxCell id="8KYo20pevM2L5X6kjU4y-129" style="edgeStyle=orthogonalEdgeStyle;curved=1;rounded=0;html=1;exitX=1;exitY=0.5;exitPerimeter=0;entryX=0;entryY=0.5;entryPerimeter=0;endArrow=none;endFill=0;jettySize=auto;orthogonalLoop=1;strokeWidth=4;fontSize=15;" edge="1" parent="1" source="8KYo20pevM2L5X6kjU4y-130" target="8KYo20pevM2L5X6kjU4y-135">
          <mxGeometry relative="1" as="geometry" />
        </mxCell>
        <mxCell id="8KYo20pevM2L5X6kjU4y-130" value="" style="verticalLabelPosition=bottom;verticalAlign=top;html=1;strokeWidth=4;shape=mxgraph.flowchart.on-page_reference;plain-blue;gradientColor=none;fillColor=#B5E3Fe;strokeColor=#000000;whiteSpace=wrap;spacing=0;textOpacity=80;" vertex="1" parent="1">
          <mxGeometry x="299.5" y="650" width="30" height="30" as="geometry" />
        </mxCell>
        <mxCell id="8KYo20pevM2L5X6kjU4y-131" value="" style="verticalLabelPosition=bottom;verticalAlign=top;html=1;strokeWidth=4;shape=mxgraph.flowchart.on-page_reference;strokeColor=#b85450;fillColor=#f8cecc;" vertex="1" parent="1">
          <mxGeometry x="589.5" y="650" width="30" height="30" as="geometry" />
        </mxCell>
        <mxCell id="8KYo20pevM2L5X6kjU4y-132" value="" style="edgeStyle=orthogonalEdgeStyle;rounded=0;html=1;jettySize=auto;orthogonalLoop=1;strokeWidth=4;endArrow=none;endFill=0;" edge="1" parent="1" target="8KYo20pevM2L5X6kjU4y-130">
          <mxGeometry x="204.5" y="180" as="geometry">
            <mxPoint x="185" y="665" as="sourcePoint" />
          </mxGeometry>
        </mxCell>
        <mxCell id="8KYo20pevM2L5X6kjU4y-133" value="main" style="text;html=1;strokeColor=none;fillColor=none;align=center;verticalAlign=middle;whiteSpace=wrap;overflow=hidden;fontSize=14;fontStyle=1;fontFamily=Courier New;" vertex="1" parent="1">
          <mxGeometry x="115" y="655" width="50" height="20" as="geometry" />
        </mxCell>
        <mxCell id="8KYo20pevM2L5X6kjU4y-134" style="edgeStyle=orthogonalEdgeStyle;curved=1;rounded=0;html=1;exitX=1;exitY=0.5;exitPerimeter=0;entryX=0;entryY=0.5;entryPerimeter=0;endArrow=none;endFill=0;jettySize=auto;orthogonalLoop=1;strokeWidth=4;fontSize=15;" edge="1" parent="1" source="8KYo20pevM2L5X6kjU4y-135" target="8KYo20pevM2L5X6kjU4y-137">
          <mxGeometry relative="1" as="geometry" />
        </mxCell>
        <mxCell id="8KYo20pevM2L5X6kjU4y-135" value="" style="verticalLabelPosition=bottom;verticalAlign=top;html=1;strokeWidth=4;shape=mxgraph.flowchart.on-page_reference;plain-purple;gradientColor=none;strokeColor=#000000;" vertex="1" parent="1">
          <mxGeometry x="372.5" y="730" width="30" height="30" as="geometry" />
        </mxCell>
        <mxCell id="8KYo20pevM2L5X6kjU4y-136" style="edgeStyle=orthogonalEdgeStyle;curved=1;rounded=0;html=1;exitX=1;exitY=0.5;exitPerimeter=0;entryX=0;entryY=0.5;entryPerimeter=0;endArrow=none;endFill=0;jettySize=auto;orthogonalLoop=1;strokeWidth=4;fontSize=15;" edge="1" parent="1" source="8KYo20pevM2L5X6kjU4y-137" target="8KYo20pevM2L5X6kjU4y-139">
          <mxGeometry relative="1" as="geometry" />
        </mxCell>
        <mxCell id="8KYo20pevM2L5X6kjU4y-137" value="" style="verticalLabelPosition=bottom;verticalAlign=top;html=1;strokeWidth=4;shape=mxgraph.flowchart.on-page_reference;plain-purple;gradientColor=none;strokeColor=#000000;" vertex="1" parent="1">
          <mxGeometry x="444.5" y="730" width="30" height="30" as="geometry" />
        </mxCell>
        <mxCell id="8KYo20pevM2L5X6kjU4y-138" style="edgeStyle=orthogonalEdgeStyle;curved=1;rounded=0;html=1;exitX=1;exitY=0.5;exitPerimeter=0;entryX=0;entryY=0.5;entryPerimeter=0;endArrow=none;endFill=0;jettySize=auto;orthogonalLoop=1;strokeWidth=4;fontSize=15;" edge="1" parent="1" source="8KYo20pevM2L5X6kjU4y-139" target="8KYo20pevM2L5X6kjU4y-131">
          <mxGeometry relative="1" as="geometry" />
        </mxCell>
        <mxCell id="8KYo20pevM2L5X6kjU4y-139" value="" style="verticalLabelPosition=bottom;verticalAlign=top;html=1;strokeWidth=4;shape=mxgraph.flowchart.on-page_reference;plain-purple;gradientColor=none;strokeColor=#000000;" vertex="1" parent="1">
          <mxGeometry x="517.5" y="730" width="30" height="30" as="geometry" />
        </mxCell>
        <mxCell id="8KYo20pevM2L5X6kjU4y-140" value="feature-branch created" style="text;html=1;strokeColor=none;fillColor=none;align=left;verticalAlign=middle;whiteSpace=wrap;overflow=hidden;fontSize=14;fontStyle=1;fontFamily=Courier New;" vertex="1" parent="1">
          <mxGeometry x="225" y="695" width="130" height="65" as="geometry" />
        </mxCell>
        <mxCell id="8KYo20pevM2L5X6kjU4y-141" value="&lt;b&gt;c1&lt;/b&gt;" style="text;html=1;align=center;verticalAlign=middle;whiteSpace=wrap;rounded=0;" vertex="1" parent="1">
          <mxGeometry x="284.5" y="650" width="60" height="30" as="geometry" />
        </mxCell>
        <mxCell id="8KYo20pevM2L5X6kjU4y-142" value="" style="group" vertex="1" connectable="0" parent="1">
          <mxGeometry x="429.5" y="655" width="60" height="30" as="geometry" />
        </mxCell>
        <mxCell id="8KYo20pevM2L5X6kjU4y-143" value="" style="verticalLabelPosition=bottom;verticalAlign=top;html=1;strokeWidth=4;shape=mxgraph.flowchart.on-page_reference;plain-blue;gradientColor=none;strokeColor=#000000;" vertex="1" parent="8KYo20pevM2L5X6kjU4y-142">
          <mxGeometry x="15.5" width="30" height="30" as="geometry" />
        </mxCell>
        <mxCell id="8KYo20pevM2L5X6kjU4y-144" value="&lt;b&gt;c2&lt;/b&gt;" style="text;html=1;align=center;verticalAlign=middle;whiteSpace=wrap;rounded=0;" vertex="1" parent="8KYo20pevM2L5X6kjU4y-142">
          <mxGeometry width="60" height="30" as="geometry" />
        </mxCell>
        <mxCell id="8KYo20pevM2L5X6kjU4y-145" value="&lt;b&gt;cm&lt;/b&gt;" style="text;html=1;align=center;verticalAlign=middle;whiteSpace=wrap;rounded=0;" vertex="1" parent="1">
          <mxGeometry x="574.5" y="650" width="60" height="30" as="geometry" />
        </mxCell>
        <mxCell id="8KYo20pevM2L5X6kjU4y-146" value="" style="edgeStyle=orthogonalEdgeStyle;rounded=0;html=1;jettySize=auto;orthogonalLoop=1;strokeWidth=4;endArrow=none;endFill=0;" edge="1" parent="1">
          <mxGeometry x="204.5" y="180" as="geometry">
            <mxPoint x="619.5" y="664.41" as="sourcePoint" />
            <mxPoint x="734.5" y="664.41" as="targetPoint" />
          </mxGeometry>
        </mxCell>
        <mxCell id="8KYo20pevM2L5X6kjU4y-147" value="merge" style="text;html=1;strokeColor=none;fillColor=none;align=left;verticalAlign=middle;whiteSpace=wrap;overflow=hidden;fontSize=14;fontStyle=1;fontFamily=Courier New;" vertex="1" parent="1">
          <mxGeometry x="574.5" y="685" width="130" height="65" as="geometry" />
        </mxCell>
        <mxCell id="8KYo20pevM2L5X6kjU4y-148" value="&lt;b&gt;A&lt;/b&gt;" style="text;html=1;align=center;verticalAlign=middle;whiteSpace=wrap;rounded=0;" vertex="1" parent="1">
          <mxGeometry x="357.5" y="730" width="60" height="30" as="geometry" />
        </mxCell>
        <mxCell id="8KYo20pevM2L5X6kjU4y-149" value="&lt;b&gt;B&lt;/b&gt;" style="text;html=1;align=center;verticalAlign=middle;whiteSpace=wrap;rounded=0;" vertex="1" parent="1">
          <mxGeometry x="429.5" y="730" width="60" height="30" as="geometry" />
        </mxCell>
        <mxCell id="8KYo20pevM2L5X6kjU4y-150" value="&lt;b&gt;C&lt;/b&gt;" style="text;html=1;align=center;verticalAlign=middle;whiteSpace=wrap;rounded=0;" vertex="1" parent="1">
          <mxGeometry x="502.5" y="730" width="60" height="30" as="geometry" />
        </mxCell>
        <mxCell id="8KYo20pevM2L5X6kjU4y-151" value="" style="edgeStyle=orthogonalEdgeStyle;rounded=0;html=1;jettySize=auto;orthogonalLoop=1;plain-blue;endArrow=none;endFill=0;strokeWidth=4;strokeColor=#000000;" edge="1" parent="1" source="8KYo20pevM2L5X6kjU4y-167">
          <mxGeometry x="304.5" y="180" as="geometry">
            <mxPoint x="665" y="805" as="targetPoint" />
          </mxGeometry>
        </mxCell>
        <mxCell id="8KYo20pevM2L5X6kjU4y-152" value="" style="verticalLabelPosition=bottom;verticalAlign=top;html=1;strokeWidth=4;shape=mxgraph.flowchart.on-page_reference;plain-blue;gradientColor=none;fillColor=#B5E3Fe;strokeColor=#000000;whiteSpace=wrap;spacing=0;textOpacity=80;" vertex="1" parent="1">
          <mxGeometry x="299.5" y="790" width="30" height="30" as="geometry" />
        </mxCell>
        <mxCell id="8KYo20pevM2L5X6kjU4y-153" value="&lt;b&gt;c1&lt;/b&gt;" style="text;html=1;align=center;verticalAlign=middle;whiteSpace=wrap;rounded=0;" vertex="1" parent="1">
          <mxGeometry x="284.5" y="790" width="60" height="30" as="geometry" />
        </mxCell>
        <mxCell id="8KYo20pevM2L5X6kjU4y-156" value="" style="edgeStyle=orthogonalEdgeStyle;rounded=0;html=1;jettySize=auto;orthogonalLoop=1;strokeWidth=4;endArrow=none;endFill=0;" edge="1" parent="1">
          <mxGeometry x="204.5" y="180" as="geometry">
            <mxPoint x="184.5" y="804.41" as="sourcePoint" />
            <mxPoint x="299.5" y="804.41" as="targetPoint" />
          </mxGeometry>
        </mxCell>
        <mxCell id="8KYo20pevM2L5X6kjU4y-157" value="" style="edgeStyle=orthogonalEdgeStyle;rounded=0;html=1;jettySize=auto;orthogonalLoop=1;plain-blue;endArrow=none;endFill=0;strokeWidth=4;strokeColor=#000000;" edge="1" parent="1" source="8KYo20pevM2L5X6kjU4y-152">
          <mxGeometry x="304.5" y="180" as="geometry">
            <mxPoint x="330" y="805" as="sourcePoint" />
            <mxPoint x="380" y="805" as="targetPoint" />
          </mxGeometry>
        </mxCell>
        <mxCell id="8KYo20pevM2L5X6kjU4y-160" value="" style="edgeStyle=orthogonalEdgeStyle;rounded=0;html=1;jettySize=auto;orthogonalLoop=1;strokeWidth=4;endArrow=none;endFill=0;" edge="1" parent="1">
          <mxGeometry x="204.5" y="180" as="geometry">
            <mxPoint x="619.5" y="804.41" as="sourcePoint" />
            <mxPoint x="665" y="805" as="targetPoint" />
          </mxGeometry>
        </mxCell>
        <mxCell id="8KYo20pevM2L5X6kjU4y-164" value="" style="verticalLabelPosition=bottom;verticalAlign=top;html=1;strokeWidth=4;shape=mxgraph.flowchart.on-page_reference;plain-purple;gradientColor=none;strokeColor=#000000;" vertex="1" parent="1">
          <mxGeometry x="515" y="790" width="30" height="30" as="geometry" />
        </mxCell>
        <mxCell id="8KYo20pevM2L5X6kjU4y-165" value="&lt;b&gt;B&lt;/b&gt;" style="text;html=1;align=center;verticalAlign=middle;whiteSpace=wrap;rounded=0;" vertex="1" parent="1">
          <mxGeometry x="500" y="790" width="60" height="30" as="geometry" />
        </mxCell>
        <mxCell id="8KYo20pevM2L5X6kjU4y-166" value="" style="edgeStyle=orthogonalEdgeStyle;rounded=0;html=1;jettySize=auto;orthogonalLoop=1;plain-blue;endArrow=none;endFill=0;strokeWidth=4;strokeColor=#000000;" edge="1" parent="1" source="8KYo20pevM2L5X6kjU4y-164" target="8KYo20pevM2L5X6kjU4y-167">
          <mxGeometry x="304.5" y="180" as="geometry">
            <mxPoint x="545" y="805" as="sourcePoint" />
            <mxPoint x="665" y="805" as="targetPoint" />
          </mxGeometry>
        </mxCell>
        <mxCell id="8KYo20pevM2L5X6kjU4y-167" value="" style="verticalLabelPosition=bottom;verticalAlign=top;html=1;strokeWidth=4;shape=mxgraph.flowchart.on-page_reference;plain-purple;gradientColor=none;strokeColor=#000000;" vertex="1" parent="1">
          <mxGeometry x="589.5" y="790" width="30" height="30" as="geometry" />
        </mxCell>
        <mxCell id="8KYo20pevM2L5X6kjU4y-168" value="&lt;b&gt;C&lt;/b&gt;" style="text;html=1;align=center;verticalAlign=middle;whiteSpace=wrap;rounded=0;" vertex="1" parent="1">
          <mxGeometry x="574.5" y="790" width="60" height="30" as="geometry" />
        </mxCell>
        <mxCell id="8KYo20pevM2L5X6kjU4y-169" value="" style="group" vertex="1" connectable="0" parent="1">
          <mxGeometry x="365" y="790" width="60" height="30" as="geometry" />
        </mxCell>
        <mxCell id="8KYo20pevM2L5X6kjU4y-170" value="" style="verticalLabelPosition=bottom;verticalAlign=top;html=1;strokeWidth=4;shape=mxgraph.flowchart.on-page_reference;plain-blue;gradientColor=none;strokeColor=#000000;" vertex="1" parent="8KYo20pevM2L5X6kjU4y-169">
          <mxGeometry x="15.5" width="30" height="30" as="geometry" />
        </mxCell>
        <mxCell id="8KYo20pevM2L5X6kjU4y-171" value="&lt;b&gt;c2&lt;/b&gt;" style="text;html=1;align=center;verticalAlign=middle;whiteSpace=wrap;rounded=0;" vertex="1" parent="8KYo20pevM2L5X6kjU4y-169">
          <mxGeometry x="0.5" width="60" height="30" as="geometry" />
        </mxCell>
        <mxCell id="8KYo20pevM2L5X6kjU4y-172" value="main" style="text;html=1;strokeColor=none;fillColor=none;align=center;verticalAlign=middle;whiteSpace=wrap;overflow=hidden;fontSize=14;fontStyle=1;fontFamily=Courier New;" vertex="1" parent="1">
          <mxGeometry x="115" y="795" width="50" height="20" as="geometry" />
        </mxCell>
        <mxCell id="8KYo20pevM2L5X6kjU4y-173" value="&lt;font&gt;&lt;u&gt;Rebase and Merge&lt;/u&gt;&lt;/font&gt;" style="text;html=1;strokeColor=none;fillColor=none;align=center;verticalAlign=middle;whiteSpace=wrap;overflow=hidden;fontSize=14;fontStyle=1;fontFamily=Courier New;" vertex="1" parent="1">
          <mxGeometry x="115" y="620" width="145" height="20" as="geometry" />
        </mxCell>
        <mxCell id="8KYo20pevM2L5X6kjU4y-175" value="" style="edgeStyle=orthogonalEdgeStyle;rounded=0;html=1;jettySize=auto;orthogonalLoop=1;plain-blue;endArrow=none;endFill=0;strokeWidth=4;strokeColor=#000000;" edge="1" parent="1" target="8KYo20pevM2L5X6kjU4y-174">
          <mxGeometry x="304.5" y="180" as="geometry">
            <mxPoint x="410" y="805" as="sourcePoint" />
            <mxPoint x="515" y="805" as="targetPoint" />
          </mxGeometry>
        </mxCell>
        <mxCell id="8KYo20pevM2L5X6kjU4y-174" value="" style="verticalLabelPosition=bottom;verticalAlign=top;html=1;strokeWidth=4;shape=mxgraph.flowchart.on-page_reference;plain-purple;gradientColor=none;strokeColor=#000000;" vertex="1" parent="1">
          <mxGeometry x="445" y="790" width="30" height="30" as="geometry" />
        </mxCell>
        <mxCell id="8KYo20pevM2L5X6kjU4y-159" value="&lt;b&gt;A&lt;/b&gt;" style="text;html=1;align=center;verticalAlign=middle;whiteSpace=wrap;rounded=0;" vertex="1" parent="1">
          <mxGeometry x="430" y="790" width="60" height="30" as="geometry" />
        </mxCell>
        <mxCell id="8KYo20pevM2L5X6kjU4y-180" value="" style="edgeStyle=orthogonalEdgeStyle;rounded=0;html=1;jettySize=auto;orthogonalLoop=1;plain-blue;endArrow=none;endFill=0;strokeWidth=4;strokeColor=#000000;entryX=0;entryY=0.5;entryDx=0;entryDy=0;entryPerimeter=0;" edge="1" parent="1" target="8KYo20pevM2L5X6kjU4y-164">
          <mxGeometry x="304.5" y="180" as="geometry">
            <mxPoint x="475" y="804.76" as="sourcePoint" />
            <mxPoint x="510" y="804.76" as="targetPoint" />
          </mxGeometry>
        </mxCell>
        <mxCell id="8KYo20pevM2L5X6kjU4y-181" value="" style="edgeStyle=orthogonalEdgeStyle;rounded=0;html=1;jettySize=auto;orthogonalLoop=1;strokeWidth=4;endArrow=none;endFill=0;" edge="1" parent="1">
          <mxGeometry x="204.5" y="180" as="geometry">
            <mxPoint x="619.5" y="804.41" as="sourcePoint" />
            <mxPoint x="734.5" y="804.41" as="targetPoint" />
          </mxGeometry>
        </mxCell>
      </root>
    </mxGraphModel>
  </diagram>
</mxfile>
